<svg xmlns="http://www.w3.org/2000/svg" viewBox="0 0 800 600" role="img" aria-label="Placeholder sketch — photo coming">
<rect width="800" height="600" fill="#EFEEE9"/>
<g fill="none" stroke-linecap="round" stroke-linejoin="round">
<path d="M100 520 H700" stroke="#C9C7C0" stroke-width="1.5" stroke-dasharray="4 5" />
<path d="M120 528 H560 m0 0 l110 0 m-14 -8 14 8 -14 8" stroke="#63656A" stroke-width="1.6" />
<path d="M160 170 L160 320" stroke="#A5342C" stroke-width="6" />
<path d="M146 320 h28 l-3 34 h-22 z" stroke="#A5342C" stroke-width="2.5" />
<path d="M146 356 q-4 34 0 62" stroke="#A5342C" stroke-width="2" />
<path d="M153 356 q-2 34 0 62" stroke="#A5342C" stroke-width="2" />
<path d="M160 356 q0 34 0 62" stroke="#A5342C" stroke-width="2" />
<path d="M167 356 q2 34 0 62" stroke="#A5342C" stroke-width="2" />
<path d="M174 356 q4 34 0 62" stroke="#A5342C" stroke-width="2" />
<text x="160" y="480" text-anchor="middle" font-family="system-ui,sans-serif" font-size="17" fill="#63656A">v1</text>
<path d="M320 170 L320 320" stroke="#A5342C" stroke-width="6" />
<path d="M306 320 h28 l-3 34 h-22 z" stroke="#A5342C" stroke-width="2.5" />
<path d="M306 356 q-16 34 0 62" stroke="#A5342C" stroke-width="2" />
<path d="M313 356 q-8 34 0 62" stroke="#A5342C" stroke-width="2" />
<path d="M320 356 q0 34 0 62" stroke="#A5342C" stroke-width="2" />
<path d="M327 356 q8 34 0 62" stroke="#A5342C" stroke-width="2" />
<path d="M334 356 q16 34 0 62" stroke="#A5342C" stroke-width="2" />
<text x="320" y="480" text-anchor="middle" font-family="system-ui,sans-serif" font-size="17" fill="#63656A">v2</text>
<path d="M480 170 L480 320" stroke="#A5342C" stroke-width="6" />
<path d="M466 320 h28 l-3 34 h-22 z" stroke="#A5342C" stroke-width="2.5" />
<path d="M466 356 q-28 34 0 62" stroke="#A5342C" stroke-width="2" />
<path d="M473 356 q-14 34 0 62" stroke="#A5342C" stroke-width="2" />
<path d="M480 356 q0 34 0 62" stroke="#A5342C" stroke-width="2" />
<path d="M487 356 q14 34 0 62" stroke="#A5342C" stroke-width="2" />
<path d="M494 356 q28 34 0 62" stroke="#A5342C" stroke-width="2" />
<text x="480" y="480" text-anchor="middle" font-family="system-ui,sans-serif" font-size="17" fill="#63656A">v3</text>
<path d="M640 170 L640 320" stroke="#A5342C" stroke-width="6" />
<path d="M626 320 h28 l-3 34 h-22 z" stroke="#A5342C" stroke-width="2.5" />
<path d="M626 356 q-40 34 0 62" stroke="#A5342C" stroke-width="2" />
<path d="M633 356 q-20 34 0 62" stroke="#A5342C" stroke-width="2" />
<path d="M640 356 q0 34 0 62" stroke="#A5342C" stroke-width="2" />
<path d="M647 356 q20 34 0 62" stroke="#A5342C" stroke-width="2" />
<path d="M654 356 q40 34 0 62" stroke="#A5342C" stroke-width="2" />
<text x="640" y="480" text-anchor="middle" font-family="system-ui,sans-serif" font-size="17" fill="#63656A">v4</text>
</g>
<text x="786" y="586" text-anchor="end" font-family="system-ui,sans-serif" font-size="16" letter-spacing="1.5" fill="#63656A" opacity=".75" style="text-transform:uppercase">PLACEHOLDER SKETCH</text>
</svg>