<svg xmlns="http://www.w3.org/2000/svg" viewBox="0 0 300 400" role="img" aria-label="Placeholder sketch — photo coming">
<rect width="300" height="400" fill="#EFEEE9"/>
<g fill="none" stroke-linecap="round" stroke-linejoin="round">
<path d="M40 340 h220" stroke="#12707C" stroke-width="2" />
<path d="M60 340 V190 L150 120 L240 190 V340" stroke="#12707C" stroke-width="2.5" />
<path d="M60 190 h180" stroke="#63656A" stroke-width="1.5" />
<path d="M95 340 v-36 m-12 12 q12 -20 12 -12 m0 0 q0 -8 12 -12" stroke="#12707C" stroke-width="2" />
<path d="M150 340 v-36 m-12 12 q12 -20 12 -12 m0 0 q0 -8 12 -12" stroke="#12707C" stroke-width="2" />
<path d="M205 340 v-36 m-12 12 q12 -20 12 -12 m0 0 q0 -8 12 -12" stroke="#12707C" stroke-width="2" />
<path d="M258 340 v-90" stroke="#63656A" stroke-width="2" />
<circle cx="258" cy="240" r="6" fill="#63656A" stroke="none"/>
<path d="M258 226 a26 26 0 0 1 0 -0.1" stroke="#C9C7C0" stroke-width="1.5" stroke-dasharray="4 5" />
<path d="M244 222 a20 20 0 0 1 28 0 M236 208 a32 32 0 0 1 44 0" stroke="#63656A" stroke-width="1.5" />
</g>
<text x="286" y="386" text-anchor="end" font-family="system-ui,sans-serif" font-size="11" letter-spacing="1.5" fill="#63656A" opacity=".75" style="text-transform:uppercase">PLACEHOLDER SKETCH</text>
</svg>